<svg width="256" height="256" viewBox="0 0 256 256" fill="none" xmlns="http://www.w3.org/2000/svg">
<path fill-rule="evenodd" clip-rule="evenodd" d="M28.3442 0.000244141H227.656C243.31 0.000244141 256 12.6888 256 28.3408V182.649C256 198.302 243.31 212.202 227.656 212.202H144.203C137.005 212.202 130.075 211.706 124.822 216.628L90.6664 249.338C75.7058 263.356 48 253.924 48 233.423C48 220.487 39.8364 212.202 26.8997 212.202H25.1618C11.2653 212.202 0 200.938 0 187.043L0.000153462 28.3408C0.000153462 12.6888 12.6902 0.000244141 28.3442 0.000244141ZM120.463 35.4262C112.636 35.4262 106.29 41.7704 106.29 49.5965V148.788C106.29 156.614 112.636 162.959 120.463 162.959H134.635C142.462 162.959 148.806 156.614 148.806 148.788V49.5964C148.806 41.7704 142.462 35.4262 134.635 35.4262H120.463ZM63.7744 77.9362C55.9474 77.9362 49.6023 84.2806 49.6023 92.1069V148.787C49.6023 156.614 55.9474 162.958 63.7744 162.958H77.9461C85.7732 162.958 92.1183 156.614 92.1183 148.787V92.1069C92.1183 84.2806 85.7732 77.9362 77.9461 77.9362H63.7744ZM162.978 120.447C162.978 112.621 169.324 106.277 177.151 106.277H191.323C199.15 106.277 205.495 112.621 205.495 120.447V148.787C205.495 156.614 199.15 162.958 191.323 162.958H177.151C169.324 162.958 162.978 156.614 162.978 148.787V120.447Z" fill="#2D87F1"/>
</svg>
